<svg width="20" height="20" viewBox="0 0 20 20" fill="none" xmlns="http://www.w3.org/2000/svg">
<path fill-rule="evenodd" clip-rule="evenodd" d="M0.000366458 1.67091C0.000366458 1.22776 0.176408 0.802756 0.489764 0.4894C0.803121 0.176044 1.22812 2.22756e-06 1.67128 2.22756e-06H18.3276C18.5473 -0.000356456 18.7648 0.0426049 18.9678 0.126426C19.1708 0.210248 19.3552 0.333284 19.5106 0.48849C19.666 0.643696 19.7892 0.828024 19.8732 1.03092C19.9573 1.23382 20.0005 1.4513 20.0004 1.67091V18.3273C20.0006 18.5469 19.9575 18.7645 19.8736 18.9675C19.7897 19.1705 19.6666 19.3549 19.5113 19.5103C19.356 19.6656 19.1716 19.7889 18.9687 19.8729C18.7657 19.9569 18.5482 20.0001 18.3285 20H1.67128C1.45177 20 1.23442 19.9568 1.03164 19.8727C0.828853 19.7887 0.644613 19.6655 0.489443 19.5103C0.334273 19.355 0.211213 19.1707 0.127296 18.9679C0.0433783 18.7651 0.000247033 18.5477 0.000366458 18.3282V1.67091ZM7.91673 7.62546H10.6249V8.98546C11.0158 8.20364 12.0158 7.5 13.5185 7.5C16.3995 7.5 17.0822 9.05727 17.0822 11.9145V17.2073H14.1667V12.5655C14.1667 10.9382 13.7758 10.02 12.7831 10.02C11.4058 10.02 10.8331 11.01 10.8331 12.5655V17.2073H7.91673V7.62546ZM2.91673 17.0827H5.83309V7.5H2.91673V17.0818V17.0827ZM6.25037 4.37455C6.25586 4.62425 6.21143 4.87254 6.11967 5.10483C6.02792 5.33713 5.89069 5.54876 5.71603 5.7273C5.54138 5.90585 5.33282 6.0477 5.1026 6.14455C4.87238 6.2414 4.62513 6.29129 4.37537 6.29129C4.1256 6.29129 3.87836 6.2414 3.64813 6.14455C3.41791 6.0477 3.20936 5.90585 3.0347 5.7273C2.86005 5.54876 2.72281 5.33713 2.63106 5.10483C2.5393 4.87254 2.49487 4.62425 2.50037 4.37455C2.51116 3.88441 2.71344 3.41799 3.0639 3.07517C3.41435 2.73235 3.88512 2.54038 4.37537 2.54038C4.86562 2.54038 5.33638 2.73235 5.68683 3.07517C6.03729 3.41799 6.23957 3.88441 6.25037 4.37455Z" fill="white"/>
</svg>
