<svg width="312" height="62" viewBox="0 0 312 62" fill="none" xmlns="http://www.w3.org/2000/svg">
<circle cx="197.276" cy="30.6552" r="30.6552" fill="#F5F5F5"/>
<g clip-path="url(#clip0_390_5)">
<path d="M191.145 41.0166C190.593 42.7946 190.042 44.45 189.49 46.1054C189.367 46.4119 189.306 46.8411 189.122 46.9637C188.754 47.2089 188.141 47.4542 187.773 47.3316C187.466 47.2089 187.037 46.5958 187.037 46.228C187.16 45.1857 187.466 44.2047 187.773 43.1624C188.08 42.3041 188.386 41.3231 188.754 40.4648C188.999 39.7904 188.938 39.2999 188.447 38.7481C186.976 37.154 186.179 35.1921 185.811 33.1075C185.014 28.4479 186.424 24.4628 189.796 21.2133C193.046 18.0865 197.092 16.3698 201.261 15.021C203.101 14.4078 205.001 14.04 206.902 13.5495C208.128 13.2429 208.802 13.7947 208.802 15.021C208.802 19.6192 208.986 24.2175 208.741 28.8158C208.435 34.8855 204.143 40.0356 197.951 41.2618C195.743 41.691 193.475 41.691 191.145 41.0166ZM190.042 36.9088C190.103 36.7862 190.164 36.7248 190.225 36.6635C192.003 32.5557 194.333 28.7545 197.276 25.3211C198.318 24.0949 199.422 22.9913 200.526 21.8264C201.077 21.2746 201.813 21.3359 202.365 21.949C202.855 22.5008 202.855 22.9913 202.242 23.6044C202.058 23.7883 201.936 23.911 201.752 24.0949C198.625 27.0991 196.111 30.5325 194.027 34.3337C193.291 35.7439 192.617 37.2766 191.881 38.7481C192.494 38.8707 192.923 38.9933 193.352 39.0546C193.965 39.116 194.64 39.116 195.253 39.116C200.648 38.9933 205.001 35.4373 205.982 30.1646C206.289 28.4479 206.227 26.6699 206.227 24.9532C206.289 22.133 206.227 19.2514 206.227 16.4311C206.105 16.3698 206.044 16.3698 205.982 16.3698C201.629 17.2281 197.46 18.6383 193.72 21.0907C189.98 23.5431 187.589 26.8539 187.896 31.6361C188.202 33.5367 188.815 35.3147 190.042 36.9088Z" fill="#006633"/>
</g>
<circle cx="30.6552" cy="30.6552" r="30.6552" fill="#F5F5F5"/>
<g clip-path="url(#clip1_390_5)">
<path d="M16.3698 28.8772C15.8793 28.9998 15.3275 29.3064 15.021 29.1837C14.6531 29.0611 14.224 28.5706 14.1013 28.1415C14.04 27.8349 14.3466 27.3444 14.6531 27.0992C16.5538 25.5664 18.4544 24.0337 20.4163 22.5009C23.4818 20.0485 26.6087 17.6574 29.6742 15.2049C30.4712 14.5918 30.7778 14.5918 31.5748 15.2049C36.4183 19.0062 41.2619 22.8688 46.1054 26.7313C46.3506 26.9152 46.5346 27.0992 46.7185 27.2831C47.209 27.7123 47.3316 28.2028 46.9637 28.7546C46.5346 29.3063 46.0441 29.5516 45.3697 29.0611C45.3084 28.9998 45.1857 28.9385 45.0018 28.8772C45.0018 29.1837 44.9405 29.4903 44.9405 29.7968C44.9405 34.5177 44.9405 39.3 44.9405 44.0209C44.9405 45.3084 44.45 45.7376 43.1625 45.7376C34.8856 45.7376 26.6087 45.7376 18.3318 45.7376C16.6764 45.7376 16.3698 45.0631 16.3698 43.7756C16.3698 39.9131 16.3698 36.0505 16.3698 32.1266C16.3698 31.023 16.3698 29.9195 16.3698 28.8772ZM27.2831 35.56C29.3676 36.8475 30.1034 37.8898 30.3486 39.9744C30.4099 40.8327 30.3486 41.7524 30.4099 42.672C30.4099 42.856 30.6552 42.9786 30.7778 43.1625C30.9004 42.9786 31.023 42.856 31.0843 42.672C31.1456 42.1815 31.1456 41.7524 31.0843 41.2619C30.9617 38.8095 31.6361 36.7862 33.9659 35.56C31.7587 33.5981 31.5135 31.6361 33.0463 29.7355C34.2725 28.2641 36.6023 28.0188 38.0737 29.1837C38.9321 29.8581 39.4839 30.7165 39.5452 31.8814C39.6678 33.4142 38.9934 34.6404 37.7059 35.56C39.913 36.6023 40.9553 38.319 40.9553 40.6488C40.9553 41.4458 40.9553 42.3042 40.9553 43.1012C41.5071 43.1012 41.9976 43.1012 42.4268 43.1012C42.4268 42.9173 42.4881 42.7946 42.4881 42.7333C42.4881 37.7059 42.5494 32.6171 42.4881 27.5897C42.4881 27.2218 42.1815 26.8539 41.9363 26.6087C40.6488 25.5051 39.3612 24.5241 38.0124 23.4819C35.56 21.5199 33.0463 19.6193 30.5938 17.6574C30.4712 17.7187 30.4099 17.7187 30.3486 17.78C26.67 20.7229 22.93 23.6658 19.2514 26.67C19.0062 26.7926 18.8836 27.2831 18.8836 27.5897C18.8836 32.4945 18.8836 37.4606 18.8836 42.3655C18.8836 42.6107 18.9449 42.856 18.9449 43.1012C19.4967 43.1012 19.9258 43.1012 20.4776 43.1012C20.4776 40.097 20.2324 36.9702 23.7271 35.4987C21.5812 33.5981 21.336 31.207 23.0527 29.4903C24.4628 28.0188 26.9765 28.1415 28.3867 29.7355C29.8581 31.3296 29.4289 33.8433 27.2831 35.56ZM38.6255 43.1012C38.6255 42.1202 38.6255 41.2006 38.6255 40.3422C38.6255 40.1583 38.5642 39.9744 38.5029 39.7904C38.135 38.3803 37.0928 37.5833 35.6213 37.7059C34.4564 37.7672 33.5981 38.6255 33.4754 40.0357C33.3528 41.078 33.4754 42.0589 33.4754 43.1625C35.1308 43.1012 36.7862 43.1012 38.6255 43.1012ZM28.0801 43.1012C28.0188 41.9363 28.0801 40.8327 27.8349 39.7291C27.5896 38.3803 26.486 37.5833 25.3211 37.6446C24.0949 37.7059 22.9914 38.6868 22.8687 39.9744C22.7461 41.0166 22.8687 42.0589 22.8687 43.1625C24.5854 43.1012 26.3021 43.1012 28.0801 43.1012ZM35.7439 33.4755C36.4796 33.4755 37.0928 32.9237 37.0928 32.1879C37.0928 31.5135 36.541 30.9004 35.8665 30.8391C35.1308 30.7778 34.579 31.3296 34.579 32.0653C34.579 32.8624 35.0695 33.4755 35.7439 33.4755ZM26.7313 32.1879C26.7313 31.3909 26.3021 30.9617 25.5664 30.9617C24.7694 30.9617 24.3402 31.3909 24.3402 32.1879C24.3402 32.9237 24.8307 33.4755 25.5664 33.4755C26.2408 33.4755 26.7313 32.985 26.7313 32.1879Z" fill="#006633"/>
</g>
<circle cx="113.966" cy="30.6552" r="30.6552" fill="#F5F5F5"/>
<g clip-path="url(#clip2_390_5)">
<path d="M125.553 32.004C125.553 36.2957 125.553 40.6488 125.553 44.9405C125.553 46.228 125.185 46.6572 123.837 46.6572C117.154 46.6572 110.532 46.6572 103.849 46.6572C102.746 46.6572 102.255 46.228 102.255 45.1244C102.255 39.5452 102.255 33.9046 102.255 28.3254C102.255 27.467 102.623 26.8539 103.42 26.486C105.137 25.6277 106.854 24.7694 108.509 23.911C109.061 23.6658 109.306 23.3592 109.245 22.6848C109.183 21.3973 109.245 20.1098 109.245 18.8222C109.245 18.0865 109.49 17.596 110.103 17.2282C112.31 16.002 114.456 14.7757 116.663 13.6108C116.97 13.4269 117.583 13.4269 117.89 13.6108C120.158 14.7144 122.304 15.9406 124.511 17.1055C125.308 17.5347 125.553 18.1478 125.553 19.0062C125.553 23.3592 125.553 27.7123 125.553 32.004ZM111.82 23.2979C112.739 23.2979 113.475 23.2979 114.211 23.2979C115.56 23.2979 116.05 23.7884 116.05 25.0759C116.05 31.1456 116.05 37.2154 116.05 43.2851C116.05 43.5917 116.05 43.9595 116.05 44.2661C118.441 44.2661 120.771 44.2661 123.101 44.2661C123.101 35.9892 123.101 27.8349 123.101 19.6193C123.101 19.374 122.917 19.0675 122.672 18.9449C121.078 18.0865 119.484 17.2282 117.89 16.4311C117.644 16.3085 117.276 16.3085 117.031 16.4311C115.376 17.2895 113.782 18.1478 112.188 19.0062C112.004 19.0675 111.82 19.3127 111.82 19.4967C111.82 20.7229 111.82 22.0104 111.82 23.2979ZM113.475 44.3274C113.475 38.135 113.475 32.004 113.475 25.8729C112.249 25.7503 111.084 25.689 109.98 25.9956C109.367 26.1795 106.363 27.8349 105.382 28.264C104.83 28.5093 104.769 28.8158 104.769 29.3676C104.769 34.0885 104.769 38.8708 104.769 43.5917C104.769 43.8369 104.769 44.0821 104.83 44.3274C107.773 44.3274 110.594 44.3274 113.475 44.3274Z" fill="#006633"/>
</g>
<circle cx="280.587" cy="30.6552" r="30.6552" fill="#F5F5F5"/>
<g clip-path="url(#clip3_390_5)">
<path d="M266.485 30.2989C266.485 26.1803 266.485 22.0617 266.485 17.9927C266.485 16.9011 266.783 16.5537 267.875 16.5537C269.81 16.5537 271.745 16.5537 273.68 16.5537C274.921 16.5537 275.318 16.9507 275.318 18.2409C275.318 26.3292 275.318 34.4672 275.318 42.5555C275.318 43.7961 274.971 44.1434 273.68 44.1434C271.844 44.1434 270.008 44.1434 268.172 44.1434C266.833 44.1434 266.485 43.8457 266.485 42.4067C266.485 38.3873 266.485 34.3183 266.485 30.2989ZM268.47 39.1812C268.917 39.1812 269.363 39.1812 269.81 39.1812C270.455 39.1812 270.802 39.5286 270.802 40.2233C270.802 40.8684 270.505 41.2157 269.81 41.2157C269.363 41.2157 268.917 41.2157 268.52 41.2157C268.52 41.6127 268.52 41.8608 268.52 42.1089C270.157 42.1089 271.745 42.1089 273.333 42.1089C273.333 34.2191 273.333 26.4284 273.333 18.6378C271.696 18.6378 270.108 18.6378 268.52 18.6378C268.52 19.5806 268.52 20.4738 268.52 21.4166C268.768 21.4166 268.966 21.4166 269.165 21.4166C269.363 21.4166 269.562 21.4166 269.76 21.4166C270.505 21.4166 270.802 21.7144 270.802 22.4091C270.802 23.0542 270.505 23.3023 269.76 23.3519C269.363 23.3519 268.917 23.3519 268.47 23.3519C268.47 24.2451 268.47 25.039 268.47 25.9322C268.966 25.9322 269.413 25.9322 269.86 25.9322C270.455 25.9322 270.703 26.3292 270.753 26.8254C270.802 27.3713 270.653 27.7682 270.058 27.8675C269.562 27.9171 269.016 27.9667 268.47 28.0163C268.47 28.8103 268.47 29.6042 268.47 30.4478C268.966 30.4478 269.413 30.4478 269.86 30.4478C270.455 30.4974 270.753 30.8448 270.753 31.5395C270.753 32.1349 270.455 32.4823 269.81 32.4327C269.363 32.4327 268.867 32.4327 268.42 32.4327C268.42 33.2762 268.42 34.0206 268.42 34.8145C268.966 34.8145 269.463 34.7649 269.909 34.8145C270.554 34.8641 270.753 35.3604 270.703 35.9558C270.653 36.5513 270.356 36.7994 269.76 36.7994C269.314 36.7994 268.867 36.7994 268.371 36.7994C268.47 37.5437 268.47 38.3377 268.47 39.1812Z" fill="#006633"/>
<path d="M277.005 32.6312C277.005 29.2073 277.005 25.833 277.005 22.4091C277.005 21.9625 277.055 21.6151 277.551 21.4167C278.047 21.2182 278.246 21.5159 278.543 21.764C282.215 25.3864 285.937 28.9592 289.609 32.6312C292.884 35.9062 296.109 39.1813 299.384 42.4563C299.533 42.6052 299.583 43.0517 299.434 43.3991C299.285 43.6968 298.888 43.8457 298.739 43.8953C298.144 43.9946 284.696 43.9946 278.593 44.0442C277.352 44.0442 277.055 43.7961 277.055 42.5059C277.005 39.1813 277.005 35.9062 277.005 32.6312ZM296.258 41.9601C290.453 36.2039 284.696 30.5471 278.94 24.8406C278.94 30.6463 278.94 36.3032 278.94 41.9601C284.696 41.9601 290.403 41.9601 296.258 41.9601Z" fill="#006633"/>
<path d="M285.49 39.9753C284.548 39.9753 283.654 39.9753 282.712 39.9753C281.818 39.9753 281.471 39.6775 281.421 38.7843C281.372 37.2461 281.421 35.6582 281.421 34.1199C281.421 33.6237 281.372 33.1274 281.421 32.6312C281.471 32.3335 281.669 31.8869 281.918 31.7877C282.215 31.6884 282.712 31.738 282.96 31.9365C285.093 33.971 287.227 36.0055 289.311 38.0896C289.559 38.3377 289.659 38.834 289.609 39.1317C289.51 39.6279 289.013 39.876 288.468 39.876C287.475 39.9753 286.483 39.9753 285.49 39.9753ZM286.086 38.04C285.242 37.0972 284.299 36.0055 283.257 34.8146C283.257 36.0551 283.257 36.9979 283.257 38.04C284.299 38.04 285.341 38.04 286.086 38.04Z" fill="#006633"/>
</g>
<defs>
<clipPath id="clip0_390_5">
<rect width="23.2367" height="33.9047" fill="white" transform="translate(185.627 13.4883)"/>
</clipPath>
<clipPath id="clip1_390_5">
<rect width="33.0463" height="31.0231" fill="white" transform="translate(14.1014 14.7146)"/>
</clipPath>
<clipPath id="clip2_390_5">
<rect width="23.2367" height="33.169" fill="white" transform="translate(102.317 13.4883)"/>
</clipPath>
<clipPath id="clip3_390_5">
<rect width="32.9985" height="27.5897" fill="white" transform="translate(266.485 16.5537)"/>
</clipPath>
</defs>
</svg>
