<svg width="39" height="38" viewBox="0 0 39 38" fill="none" xmlns="http://www.w3.org/2000/svg">
<path d="M19.5 0C25.2448 0 30.9896 0 36.7344 0C38.3527 0 39 0.64 39 2.24C39 13.36 39 24.48 39 35.68C39 37.44 38.3527 38 36.6535 38C25.3257 38 13.9979 38 2.67012 38C0.647303 38 0.0809129 37.44 0.0809129 35.36C0 24.48 0 13.6 0 2.72C0 2.4 0 2.16 0 1.84C0.161826 0.48 0.647303 0 2.02282 0C7.84855 0 13.6743 0 19.5 0ZM3.31743 20.56C3.31743 25.28 3.31743 30 3.31743 34.64C8.25311 34.64 13.1079 34.64 17.9627 34.64C17.9627 29.92 17.9627 25.28 17.9627 20.56C13.1079 20.56 8.25311 20.56 3.31743 20.56ZM35.7635 34.64C35.7635 29.92 35.7635 25.28 35.7635 20.56C30.9087 20.56 26.0539 20.56 21.2801 20.56C21.2801 25.28 21.2801 29.92 21.2801 34.64C26.1349 34.64 30.9087 34.64 35.7635 34.64ZM17.9627 17.28C17.9627 12.56 17.9627 8 17.9627 3.36C13.027 3.36 8.1722 3.36 3.31743 3.36C3.31743 8 3.31743 12.64 3.31743 17.28C8.25311 17.28 13.1079 17.28 17.9627 17.28ZM35.7635 17.28C35.7635 12.56 35.7635 8 35.7635 3.36C30.9087 3.36 26.0539 3.36 21.2801 3.36C21.2801 8.08 21.2801 12.64 21.2801 17.28C26.1349 17.28 30.9087 17.28 35.7635 17.28Z" fill="#3AAA35"/>
</svg>
