<svg width="120" height="19" viewBox="0 0 120 19" fill="none" xmlns="http://www.w3.org/2000/svg">
<g clip-path="url(#clip0_320_2149)">
<path d="M36.4201 16.9455H32.259L31.5853 18.8827H28.7517L32.794 7.86621H35.9446L39.9868 18.8827H37.1137L36.4201 16.9455ZM35.7266 14.8909L34.3396 10.86L32.9723 14.8909H35.7266Z" fill="white"/>
<path d="M48.0119 11.3685C47.8138 10.9967 47.5165 10.7228 47.1401 10.5271C46.7636 10.3314 46.3276 10.2336 45.8125 10.2336C44.9406 10.2336 44.2272 10.5271 43.6922 11.0946C43.1572 11.662 42.8996 12.4252 42.8996 13.384C42.8996 14.4015 43.177 15.1842 43.7319 15.7516C44.2867 16.3191 45.0595 16.6126 46.0304 16.6126C46.7041 16.6126 47.259 16.4365 47.7147 16.1038C48.1704 15.7712 48.5073 15.282 48.7253 14.6558H46.1889L47.2788 12.6795H51.1823V15.1646C50.9842 15.8299 50.6473 16.4561 50.152 17.0235C49.6764 17.591 49.0621 18.0606 48.3091 18.4128C47.576 18.765 46.7239 18.9411 45.7926 18.9411C44.683 18.9411 43.7121 18.7063 42.8402 18.2367C41.9683 17.7671 41.3144 17.1018 40.8191 16.2604C40.3435 15.419 40.1057 14.4406 40.1057 13.3644C40.1057 12.2686 40.3435 11.3098 40.8191 10.4488C41.2946 9.58788 41.9683 8.94215 42.8204 8.45296C43.6724 7.98335 44.6632 7.74854 45.753 7.74854C47.0806 7.74854 48.2101 8.06161 49.1216 8.70734C50.0331 9.35307 50.6473 10.2336 50.9446 11.3489H48.0119V11.3685Z" fill="white"/>
<path d="M58.3951 18.9022L56.0767 14.7344H55.4228V18.8827H52.7081V7.88574H57.2656C58.1375 7.88574 58.8904 8.04228 59.5047 8.33579C60.119 8.64887 60.5945 9.05979 60.8917 9.58811C61.189 10.1164 61.3475 10.7035 61.3475 11.3492C61.3475 12.0732 61.1295 12.7385 60.7134 13.3059C60.2973 13.8734 59.683 14.2843 58.8706 14.5387L61.4466 18.9022H58.3951ZM55.4426 12.8363H57.1269C57.6223 12.8363 57.9988 12.7189 58.2365 12.4841C58.4941 12.2493 58.613 11.8971 58.613 11.4666C58.613 11.0557 58.4941 10.723 58.2365 10.4882C57.9789 10.2534 57.6223 10.136 57.1269 10.136H55.4426V12.8363Z" fill="white"/>
<path d="M65.7861 7.88574V18.9022H63.0714V7.88574H65.7861Z" fill="white"/>
<path d="M69.5905 18.6085C68.9366 18.3541 68.4214 17.9628 68.0449 17.454C67.6486 16.9453 67.4505 16.3191 67.4307 15.5951H70.3237C70.3633 16.006 70.502 16.3191 70.7596 16.5344C70.9974 16.7496 71.3144 16.8474 71.7107 16.8474C72.107 16.8474 72.4241 16.7496 72.6618 16.5735C72.8996 16.3974 73.0185 16.143 73.0185 15.8104C73.0185 15.5364 72.9194 15.3212 72.7411 15.1451C72.5628 14.969 72.325 14.8124 72.0674 14.7146C71.79 14.5972 71.4135 14.4602 70.9181 14.3232C70.2048 14.108 69.6103 13.8928 69.1546 13.6579C68.6988 13.4427 68.3025 13.1101 67.9855 12.6796C67.6486 12.2491 67.4901 11.7012 67.4901 10.9968C67.4901 9.97926 67.8666 9.177 68.6196 8.58997C69.3725 8.00295 70.3435 7.729 71.5522 7.729C72.7807 7.729 73.7715 8.02252 74.5245 8.58997C75.2774 9.177 75.6737 9.97926 75.7332 11.0163H72.8005C72.7807 10.6641 72.642 10.3902 72.4042 10.1749C72.1665 9.97926 71.8494 9.86186 71.4729 9.86186C71.1361 9.86186 70.8785 9.94013 70.6803 10.1162C70.4822 10.2923 70.3435 10.5663 70.3435 10.8794C70.3435 11.2316 70.5218 11.5055 70.8587 11.7012C71.1955 11.8969 71.7305 12.1121 72.4439 12.3469C73.1572 12.5817 73.7517 12.8165 74.2074 13.0318C74.6632 13.247 75.0396 13.5797 75.3765 13.9906C75.7134 14.4015 75.8719 14.9494 75.8719 15.6147C75.8719 16.2408 75.7134 16.8083 75.3963 17.3171C75.0793 17.8258 74.6037 18.2367 73.9895 18.5498C73.3752 18.8629 72.642 18.9999 71.8098 18.9999C70.9776 18.9999 70.2444 18.8825 69.5905 18.6085Z" fill="white"/>
<path d="M79.9142 18.2954C79.0423 17.8062 78.3488 17.141 77.8336 16.28C77.3184 15.419 77.0608 14.4406 77.0608 13.3644C77.0608 12.2882 77.3184 11.3294 77.8336 10.4684C78.3488 9.60748 79.0423 8.94219 79.9142 8.453C80.786 7.96381 81.757 7.729 82.7873 7.729C83.8375 7.729 84.7887 7.96381 85.6605 8.453C86.5324 8.94219 87.2259 9.60748 87.7213 10.4684C88.2167 11.3294 88.4743 12.2882 88.4743 13.3644C88.4743 14.4406 88.2167 15.419 87.7213 16.28C87.2061 17.141 86.5324 17.8062 85.6605 18.2954C84.7887 18.7846 83.8375 19.0194 82.7873 19.0194C81.7371 18.9999 80.786 18.7651 79.9142 18.2954ZM84.9274 15.6734C85.4624 15.0864 85.72 14.3232 85.72 13.3449C85.72 12.3665 85.4624 11.6034 84.9274 11.0163C84.3924 10.4293 83.679 10.1554 82.7873 10.1554C81.8957 10.1554 81.1625 10.4489 80.6275 11.0163C80.0925 11.5838 79.8349 12.3665 79.8349 13.3449C79.8349 14.3232 80.0925 15.0864 80.6275 15.6734C81.1625 16.2604 81.8758 16.5344 82.7873 16.5344C83.679 16.5539 84.3924 16.2604 84.9274 15.6734Z" fill="white"/>
<path d="M92.7147 16.8281H96.2814V18.9022H90V7.88574H92.7147V16.8281Z" fill="white"/>
<path d="M103.593 2.87629C103.514 2.70018 103.375 2.58277 103.237 2.5045C103.078 2.42623 102.9 2.36753 102.702 2.36753C102.484 2.36753 102.285 2.42623 102.107 2.52407C101.929 2.62191 101.79 2.75888 101.691 2.95456C101.592 3.15023 101.552 3.3459 101.552 3.58071C101.552 3.81552 101.592 4.03077 101.691 4.22644C101.79 4.40255 101.929 4.55909 102.107 4.65692C102.285 4.75476 102.484 4.81346 102.702 4.81346C102.999 4.81346 103.256 4.73519 103.435 4.55909C103.633 4.38298 103.732 4.16774 103.772 3.87423H102.503V3.44374H104.366V3.87423C104.326 4.1286 104.227 4.36341 104.089 4.59822C103.93 4.81346 103.732 4.98957 103.494 5.12654C103.256 5.26352 102.979 5.32222 102.682 5.32222C102.365 5.32222 102.067 5.24395 101.81 5.10698C101.552 4.97 101.334 4.75476 101.176 4.50038C101.017 4.24601 100.938 3.9525 100.938 3.61985C100.938 3.2872 101.017 2.99369 101.176 2.73931C101.334 2.48494 101.532 2.26969 101.81 2.13272C102.067 1.99575 102.365 1.91748 102.682 1.91748C103.038 1.91748 103.355 1.99575 103.653 2.17186C103.93 2.34796 104.128 2.60234 104.267 2.91542H103.593V2.87629Z" fill="white"/>
<path d="M107.14 5.26352L106.367 3.93293H105.951V5.26352H105.396V1.91748H106.565C106.823 1.91748 107.041 1.95662 107.219 2.05445C107.398 2.15229 107.536 2.26969 107.616 2.40667C107.695 2.54364 107.754 2.71975 107.754 2.91542C107.754 3.13066 107.695 3.32634 107.556 3.50244C107.437 3.67855 107.239 3.79596 106.962 3.87423L107.794 5.26352H107.14ZM105.951 3.48288H106.565C106.764 3.48288 106.922 3.42417 107.041 3.32634C107.14 3.2285 107.2 3.09153 107.2 2.91542C107.2 2.73931 107.14 2.60234 107.041 2.5045C106.942 2.40667 106.783 2.34796 106.565 2.34796H105.951V3.48288Z" fill="white"/>
<path d="M109.498 1.91748V4.05033C109.498 4.30471 109.558 4.50038 109.696 4.61779C109.835 4.75476 110.013 4.81346 110.251 4.81346C110.489 4.81346 110.687 4.75476 110.826 4.61779C110.964 4.48082 111.024 4.30471 111.024 4.05033V1.91748H111.579V4.03077C111.579 4.30471 111.519 4.53952 111.4 4.71563C111.281 4.9113 111.123 5.04827 110.925 5.14611C110.727 5.24395 110.509 5.28308 110.251 5.28308C110.013 5.28308 109.795 5.24395 109.577 5.14611C109.379 5.04827 109.221 4.9113 109.102 4.71563C108.983 4.51995 108.923 4.30471 108.923 4.03077V1.91748H109.498Z" fill="white"/>
<path d="M115.046 3.38504C114.967 3.54158 114.828 3.65898 114.65 3.75682C114.472 3.85466 114.234 3.89379 113.956 3.89379H113.342V5.24395H112.787V1.91748H113.956C114.214 1.91748 114.432 1.95662 114.61 2.05445C114.789 2.15229 114.927 2.26969 115.007 2.40667C115.106 2.56321 115.145 2.71975 115.145 2.91542C115.165 3.07196 115.126 3.24807 115.046 3.38504ZM114.452 3.30677C114.551 3.20893 114.61 3.07196 114.61 2.89585C114.61 2.52407 114.392 2.34796 113.976 2.34796H113.362V3.44374H113.976C114.174 3.46331 114.333 3.40461 114.452 3.30677Z" fill="white"/>
<path d="M116.869 5.06791C116.612 4.93094 116.394 4.7157 116.235 4.46132C116.077 4.20695 115.997 3.91343 115.997 3.58079C115.997 3.24814 116.077 2.95463 116.235 2.70025C116.394 2.44587 116.592 2.23063 116.869 2.09366C117.127 1.95669 117.424 1.87842 117.741 1.87842C118.058 1.87842 118.355 1.95669 118.613 2.09366C118.871 2.23063 119.089 2.44587 119.247 2.70025C119.406 2.95463 119.485 3.24814 119.485 3.58079C119.485 3.91343 119.406 4.20695 119.247 4.46132C119.089 4.7157 118.89 4.93094 118.613 5.06791C118.355 5.20489 118.058 5.28316 117.741 5.28316C117.424 5.28316 117.127 5.22445 116.869 5.06791ZM118.336 4.657C118.514 4.55916 118.653 4.40262 118.752 4.22651C118.851 4.03084 118.91 3.8156 118.91 3.58079C118.91 3.32641 118.851 3.11117 118.752 2.93506C118.653 2.73939 118.514 2.60241 118.336 2.50458C118.157 2.40674 117.959 2.34804 117.741 2.34804C117.523 2.34804 117.325 2.40674 117.147 2.50458C116.968 2.60241 116.83 2.73939 116.731 2.93506C116.632 3.13074 116.592 3.34598 116.592 3.58079C116.592 3.83516 116.632 4.05041 116.731 4.22651C116.83 4.42219 116.968 4.55916 117.147 4.657C117.325 4.75483 117.523 4.81354 117.741 4.81354C117.959 4.81354 118.157 4.7744 118.336 4.657Z" fill="white"/>
<path d="M109.023 14.1863C109.439 14.695 109.637 15.3016 109.637 15.9669C109.637 16.5735 109.478 17.1018 109.181 17.5519C108.884 18.0019 108.448 18.3737 107.873 18.6281C107.299 18.8825 106.645 19.0194 105.852 19.0194H100.938V7.729H105.654C106.427 7.729 107.1 7.84641 107.655 8.10079C108.21 8.35516 108.646 8.68781 108.923 9.13786C109.221 9.58791 109.359 10.0771 109.359 10.6446C109.359 11.3098 109.181 11.8577 108.824 12.2882C108.468 12.7383 107.992 13.0514 107.418 13.2275C108.071 13.3449 108.606 13.6579 109.023 14.1863ZM103.237 12.3861H105.337C105.892 12.3861 106.308 12.2687 106.605 12.0143C106.902 11.7795 107.041 11.4273 107.041 10.9772C107.041 10.5272 106.902 10.1749 106.605 9.92056C106.308 9.66618 105.892 9.54878 105.337 9.54878H103.237V12.3861ZM106.843 16.7692C107.16 16.5148 107.318 16.143 107.318 15.6734C107.318 15.1842 107.16 14.8124 106.823 14.5385C106.486 14.2645 106.05 14.1276 105.495 14.1276H103.237V17.1605H105.535C106.11 17.1605 106.526 17.0431 106.843 16.7692Z" fill="white"/>
<path d="M117.365 18.9999L114.848 14.5972H113.778V18.9999H111.48V7.729H115.76C116.651 7.729 117.404 7.88554 118.019 8.19862C118.633 8.5117 119.108 8.92262 119.425 9.45094C119.743 9.97926 119.901 10.5663 119.901 11.212C119.901 11.9556 119.683 12.6209 119.247 13.2275C118.811 13.8341 118.157 14.245 117.305 14.4602L120.04 19.039H117.365V18.9999ZM113.758 12.9144H115.68C116.295 12.9144 116.77 12.7578 117.067 12.4643C117.365 12.1708 117.523 11.7599 117.523 11.2316C117.523 10.7228 117.365 10.3119 117.067 10.0184C116.77 9.72488 116.295 9.58791 115.68 9.58791H113.758V12.9144Z" fill="white"/>
<path d="M11.5918 15.0278L8.97618 17.689L6.69745 15.38L3.13074 19H15.5548L11.5918 15.0278Z" fill="#7CCF00"/>
<path d="M11.6315 10.3315L7.54956 14.4603L9.03569 15.9278L11.6909 13.2275L17.3976 18.9999H20.1519L11.6315 10.3315Z" fill="#213A8E"/>
<path d="M19.2602 12.4842C19.2602 13.5799 19.0224 14.6366 18.5865 15.5758L11.6314 8.49239L6.77671 13.4234L4.69613 15.5562C4.28002 14.617 4.04224 13.5799 4.04224 12.4842C4.04224 8.33585 7.45043 4.95068 11.6512 4.95068C15.852 4.97025 19.2602 8.33585 19.2602 12.4842Z" fill="#F8AD33"/>
<path d="M0.713342 10.8013H3.05152C2.95244 11.2513 2.91281 11.7405 2.893 12.2101H0.713342C0.317041 12.2101 0 11.897 0 11.5057C0 11.1143 0.317041 10.8013 0.713342 10.8013Z" fill="#F8AD33"/>
<path d="M4.4187 3.36561L6.53891 5.45933C6.14261 5.73328 5.78594 6.04636 5.44908 6.379L3.40813 4.36355C3.13072 4.08961 3.13072 3.63956 3.40813 3.36561C3.68554 3.09167 4.14129 3.09167 4.4187 3.36561Z" fill="#F8AD33"/>
<path d="M12.3646 0.704428V3.85479C12.1268 3.83522 11.889 3.81565 11.6512 3.81565C11.4134 3.81565 11.1756 3.83522 10.9379 3.85479V0.704428C10.9379 0.313079 11.2549 0 11.6512 0C12.0475 0 12.3646 0.313079 12.3646 0.704428Z" fill="#F8AD33"/>
<path d="M19.8745 3.36561C20.1519 3.63956 20.1519 4.08961 19.8745 4.36355L17.8534 6.379C17.5165 6.04636 17.1599 5.73328 16.7635 5.45933L18.8838 3.36561C19.1414 3.09167 19.5971 3.09167 19.8745 3.36561Z" fill="#F8AD33"/>
<path d="M23.2827 11.5057C23.2827 11.897 22.9657 12.2101 22.5694 12.2101H20.3897C20.3699 11.7209 20.3105 11.2513 20.2312 10.8013H22.5694C22.9657 10.8013 23.2827 11.1143 23.2827 11.5057Z" fill="#F8AD33"/>
</g>
<defs>
<clipPath id="clip0_320_2149">
<rect width="120" height="19" fill="white"/>
</clipPath>
</defs>
</svg>
