<svg width="63" height="33" viewBox="0 0 63 33" fill="none" xmlns="http://www.w3.org/2000/svg">
<path d="M58.5358 0.0361218L53.1914 3.61218C53.1192 3.6483 53.0831 3.72054 53.0831 3.79278V9.31941C53.0831 9.39166 53.1192 9.50002 53.1914 9.53615L57.1636 11.7757C57.2358 11.8118 57.2719 11.8841 57.2719 11.9924V31.751C57.2719 31.8955 57.3803 32.0039 57.5247 32.0039H62.7247C62.8691 32.0039 62.9774 31.8955 62.9774 31.751V2.56465C62.9774 2.4924 62.9413 2.38404 62.8691 2.34791L58.8247 0C58.7164 0 58.608 0 58.5358 0.0361218Z" fill="#006633"/>
<path d="M52.6497 10.2225V31.7872C52.6497 31.9317 52.5414 32.0401 52.397 32.0401H47.6664C47.522 32.0401 47.4136 31.9317 47.4136 31.7872V13.1123C47.4136 13.04 47.4498 12.9678 47.522 12.8955L52.2525 9.96968C52.4331 9.89744 52.6497 10.0419 52.6497 10.2225Z" fill="#3AAA35"/>
<path d="M17.8027 11.017L12.2416 24.8878C12.1694 25.1045 11.8444 25.1045 11.7722 24.8878L6.13886 11.017C6.10275 10.9087 5.99441 10.8364 5.88608 10.8364H0.252777C0.108333 10.8364 0 10.9448 0 11.0893V31.7148C0 31.8593 0.108333 31.9677 0.252777 31.9677H4.87498C5.01942 31.9677 5.12775 31.8593 5.12775 31.7148V20.7338C5.12775 20.4448 5.52497 20.3726 5.63331 20.6254L9.82217 31.8232C9.85828 31.9315 9.96662 32.0038 10.0749 32.0038H13.8666C13.9749 32.0038 14.0833 31.9315 14.1194 31.8232L18.2721 20.6615C18.3805 20.3726 18.7777 20.4448 18.7777 20.7699V31.7509C18.7777 31.8954 18.886 32.0038 19.0305 32.0038H23.6527C23.7971 32.0038 23.9054 31.8954 23.9054 31.7509V11.1254C23.9054 10.9809 23.7971 10.8725 23.6527 10.8725H18.0555C17.9471 10.8725 17.8388 10.9448 17.8027 11.017Z" fill="white"/>
<path d="M38.097 23.9125C38.0248 23.768 38.097 23.5874 38.2415 23.5513C39.6498 23.0817 40.697 22.3232 41.4553 21.3118C42.2498 20.2281 42.647 18.9638 42.647 17.5551C42.647 16.2908 42.3581 15.1711 41.7803 14.1596C41.2026 13.1482 40.3359 12.3536 39.1442 11.7756C37.9526 11.1977 36.5443 10.9087 34.8832 10.9087H26.5054C26.361 10.9087 26.2526 11.0171 26.2526 11.1615V31.7871C26.2526 31.9316 26.361 32.0399 26.5054 32.0399H31.1276C31.2721 32.0399 31.3804 31.9316 31.3804 31.7871V15.3878C31.3804 15.2433 31.4887 15.1349 31.6332 15.1349H34.5582C35.497 15.1349 36.2193 15.3517 36.6887 15.8213C37.1581 16.2908 37.4109 16.9049 37.4109 17.7357C37.4109 18.5665 37.1581 19.2167 36.6887 19.6863C36.2193 20.1559 35.497 20.3726 34.5582 20.3726H34.0887C33.9443 20.3726 33.8359 20.481 33.8359 20.6254V26.1882C33.8359 26.2243 33.8359 26.2604 33.872 26.2966L36.9415 31.8593C36.9776 31.9316 37.0859 32.0038 37.1581 32.0038H42.3581C42.5748 32.0038 42.6831 31.7871 42.5748 31.6065L38.097 23.9125Z" fill="white"/>
</svg>
