<svg width="201" height="35" viewBox="0 0 201 35" fill="none" xmlns="http://www.w3.org/2000/svg">
<path d="M58.5056 0.0361174L53.1639 3.61174C53.0917 3.64786 53.0556 3.72009 53.0556 3.79233V9.31828C53.0556 9.39052 53.0917 9.49887 53.1639 9.53499L57.1341 11.7743C57.2062 11.8104 57.2423 11.8826 57.2423 11.991V31.7472C57.2423 31.8916 57.3506 32 57.495 32H62.6923C62.8366 32 62.9449 31.8916 62.9449 31.7472V2.56433C62.9449 2.4921 62.9088 2.38375 62.8366 2.34763L58.7943 0C58.686 0 58.5778 0 58.5056 0.0361174Z" fill="#006633"/>
<path d="M52.6225 10.2212V31.7833C52.6225 31.9278 52.5142 32.0361 52.3699 32.0361H47.6418C47.4974 32.0361 47.3891 31.9278 47.3891 31.7833V13.1106C47.3891 13.0384 47.4252 12.9661 47.4974 12.8939L52.2255 9.9684C52.406 9.89616 52.6225 10.0406 52.6225 10.2212Z" fill="#3AAA35"/>
<path d="M17.7935 11.0158L12.2353 24.8849C12.1631 25.1016 11.8383 25.1016 11.7661 24.8849L6.13569 11.0158C6.09959 10.9074 5.99132 10.8352 5.88304 10.8352H0.252646C0.108277 10.8352 0 10.9436 0 11.088V31.7111C0 31.8555 0.108277 31.9639 0.252646 31.9639H4.87246C5.01683 31.9639 5.1251 31.8555 5.1251 31.7111V20.7314C5.1251 20.4424 5.52212 20.3702 5.63039 20.623L9.8171 31.8194C9.85319 31.9278 9.96147 32 10.0697 32H13.8594C13.9677 32 14.076 31.9278 14.1121 31.8194L18.2627 20.6591C18.371 20.3702 18.768 20.4424 18.768 20.7675V31.7472C18.768 31.8916 18.8763 32 19.0206 32H23.6404C23.7848 32 23.8931 31.8916 23.8931 31.7472V11.1242C23.8931 10.9797 23.7848 10.8713 23.6404 10.8713H18.0461C17.9379 10.8713 17.8296 10.9436 17.7935 11.0158Z" fill="black"/>
<path d="M38.0773 23.9097C38.0052 23.7652 38.0773 23.5847 38.2217 23.5485C39.6293 23.079 40.676 22.3205 41.4339 21.3093C42.228 20.2257 42.625 18.9616 42.625 17.553C42.625 16.2889 42.3362 15.1693 41.7588 14.158C41.1813 13.1467 40.3151 12.3521 39.124 11.7743C37.933 11.1964 36.5254 10.9074 34.8651 10.9074H26.4917C26.3474 10.9074 26.2391 11.0158 26.2391 11.1603V31.7833C26.2391 31.9278 26.3474 32.0361 26.4917 32.0361H31.1115C31.2559 32.0361 31.3642 31.9278 31.3642 31.7833V15.386C31.3642 15.2415 31.4725 15.1332 31.6168 15.1332H34.5403C35.4787 15.1332 36.2005 15.3499 36.6697 15.8194C37.1389 16.2889 37.3916 16.9029 37.3916 17.7336C37.3916 18.5643 37.1389 19.2144 36.6697 19.684C36.2005 20.1535 35.4787 20.3702 34.5403 20.3702H34.0711C33.9267 20.3702 33.8185 20.4786 33.8185 20.623V26.1851C33.8185 26.2212 33.8185 26.2573 33.8545 26.2935L36.9224 31.8555C36.9585 31.9278 37.0668 32 37.1389 32H42.3362C42.5528 32 42.6611 31.7833 42.5528 31.6027L38.0773 23.9097Z" fill="black"/>
<path opacity="0.7" d="M87.508 9.624V18H85.828V9.624H87.508ZM96.3318 18H94.6518L90.8478 12.252V18H89.1678V9.612H90.8478L94.6518 15.372V9.612H96.3318V18ZM97.5841 13.8C97.5841 12.976 97.7681 12.24 98.1361 11.592C98.5121 10.936 99.0201 10.428 99.6601 10.068C100.308 9.7 101.032 9.516 101.832 9.516C102.768 9.516 103.588 9.756 104.292 10.236C104.996 10.716 105.488 11.38 105.768 12.228H103.836C103.644 11.828 103.372 11.528 103.02 11.328C102.676 11.128 102.276 11.028 101.82 11.028C101.332 11.028 100.896 11.144 100.512 11.376C100.136 11.6 99.8401 11.92 99.6241 12.336C99.4161 12.752 99.3121 13.24 99.3121 13.8C99.3121 14.352 99.4161 14.84 99.6241 15.264C99.8401 15.68 100.136 16.004 100.512 16.236C100.896 16.46 101.332 16.572 101.82 16.572C102.276 16.572 102.676 16.472 103.02 16.272C103.372 16.064 103.644 15.76 103.836 15.36H105.768C105.488 16.216 104.996 16.884 104.292 17.364C103.596 17.836 102.776 18.072 101.832 18.072C101.032 18.072 100.308 17.892 99.6601 17.532C99.0201 17.164 98.5121 16.656 98.1361 16.008C97.7681 15.36 97.5841 14.624 97.5841 13.8ZM111.091 18.084C110.307 18.084 109.587 17.9 108.931 17.532C108.275 17.164 107.755 16.656 107.371 16.008C106.987 15.352 106.795 14.612 106.795 13.788C106.795 12.972 106.987 12.24 107.371 11.592C107.755 10.936 108.275 10.424 108.931 10.056C109.587 9.688 110.307 9.504 111.091 9.504C111.883 9.504 112.603 9.688 113.251 10.056C113.907 10.424 114.423 10.936 114.799 11.592C115.183 12.24 115.375 12.972 115.375 13.788C115.375 14.612 115.183 15.352 114.799 16.008C114.423 16.656 113.907 17.164 113.251 17.532C112.595 17.9 111.875 18.084 111.091 18.084ZM111.091 16.584C111.595 16.584 112.039 16.472 112.423 16.248C112.807 16.016 113.107 15.688 113.323 15.264C113.539 14.84 113.647 14.348 113.647 13.788C113.647 13.228 113.539 12.74 113.323 12.324C113.107 11.9 112.807 11.576 112.423 11.352C112.039 11.128 111.595 11.016 111.091 11.016C110.587 11.016 110.139 11.128 109.747 11.352C109.363 11.576 109.063 11.9 108.847 12.324C108.631 12.74 108.523 13.228 108.523 13.788C108.523 14.348 108.631 14.84 108.847 15.264C109.063 15.688 109.363 16.016 109.747 16.248C110.139 16.472 110.587 16.584 111.091 16.584ZM120.945 18L119.097 14.736H118.305V18H116.625V9.624H119.769C120.417 9.624 120.969 9.74 121.425 9.972C121.881 10.196 122.221 10.504 122.445 10.896C122.677 11.28 122.793 11.712 122.793 12.192C122.793 12.744 122.633 13.244 122.313 13.692C121.993 14.132 121.517 14.436 120.885 14.604L122.889 18H120.945ZM118.305 13.476H119.709C120.165 13.476 120.505 13.368 120.729 13.152C120.953 12.928 121.065 12.62 121.065 12.228C121.065 11.844 120.953 11.548 120.729 11.34C120.505 11.124 120.165 11.016 119.709 11.016H118.305V13.476ZM130.42 12.216C130.42 12.664 130.312 13.084 130.096 13.476C129.888 13.868 129.556 14.184 129.1 14.424C128.652 14.664 128.084 14.784 127.396 14.784H125.992V18H124.312V9.624H127.396C128.044 9.624 128.596 9.736 129.052 9.96C129.508 10.184 129.848 10.492 130.072 10.884C130.304 11.276 130.42 11.72 130.42 12.216ZM127.324 13.428C127.788 13.428 128.132 13.324 128.356 13.116C128.58 12.9 128.692 12.6 128.692 12.216C128.692 11.4 128.236 10.992 127.324 10.992H125.992V13.428H127.324ZM135.501 18.084C134.717 18.084 133.997 17.9 133.341 17.532C132.685 17.164 132.165 16.656 131.781 16.008C131.397 15.352 131.205 14.612 131.205 13.788C131.205 12.972 131.397 12.24 131.781 11.592C132.165 10.936 132.685 10.424 133.341 10.056C133.997 9.688 134.717 9.504 135.501 9.504C136.293 9.504 137.013 9.688 137.661 10.056C138.317 10.424 138.833 10.936 139.209 11.592C139.593 12.24 139.785 12.972 139.785 13.788C139.785 14.612 139.593 15.352 139.209 16.008C138.833 16.656 138.317 17.164 137.661 17.532C137.005 17.9 136.285 18.084 135.501 18.084ZM135.501 16.584C136.005 16.584 136.449 16.472 136.833 16.248C137.217 16.016 137.517 15.688 137.733 15.264C137.949 14.84 138.057 14.348 138.057 13.788C138.057 13.228 137.949 12.74 137.733 12.324C137.517 11.9 137.217 11.576 136.833 11.352C136.449 11.128 136.005 11.016 135.501 11.016C134.997 11.016 134.549 11.128 134.157 11.352C133.773 11.576 133.473 11.9 133.257 12.324C133.041 12.74 132.933 13.228 132.933 13.788C132.933 14.348 133.041 14.84 133.257 15.264C133.473 15.688 133.773 16.016 134.157 16.248C134.549 16.472 134.997 16.584 135.501 16.584ZM145.355 18L143.507 14.736H142.715V18H141.035V9.624H144.179C144.827 9.624 145.379 9.74 145.835 9.972C146.291 10.196 146.631 10.504 146.855 10.896C147.087 11.28 147.203 11.712 147.203 12.192C147.203 12.744 147.043 13.244 146.723 13.692C146.403 14.132 145.927 14.436 145.295 14.604L147.299 18H145.355ZM142.715 13.476H144.119C144.575 13.476 144.915 13.368 145.139 13.152C145.363 12.928 145.475 12.62 145.475 12.228C145.475 11.844 145.363 11.548 145.139 11.34C144.915 11.124 144.575 11.016 144.119 11.016H142.715V13.476ZM153.859 16.404H150.523L149.971 18H148.207L151.219 9.612H153.175L156.187 18H154.411L153.859 16.404ZM153.403 15.06L152.191 11.556L150.979 15.06H153.403ZM160.24 9.624C161.12 9.624 161.892 9.796 162.556 10.14C163.228 10.484 163.744 10.976 164.104 11.616C164.472 12.248 164.656 12.984 164.656 13.824C164.656 14.664 164.472 15.4 164.104 16.032C163.744 16.656 163.228 17.14 162.556 17.484C161.892 17.828 161.12 18 160.24 18H157.312V9.624H160.24ZM160.18 16.572C161.06 16.572 161.74 16.332 162.22 15.852C162.7 15.372 162.94 14.696 162.94 13.824C162.94 12.952 162.7 12.272 162.22 11.784C161.74 11.288 161.06 11.04 160.18 11.04H158.992V16.572H160.18ZM169.802 18.084C169.018 18.084 168.298 17.9 167.642 17.532C166.986 17.164 166.466 16.656 166.082 16.008C165.698 15.352 165.506 14.612 165.506 13.788C165.506 12.972 165.698 12.24 166.082 11.592C166.466 10.936 166.986 10.424 167.642 10.056C168.298 9.688 169.018 9.504 169.802 9.504C170.594 9.504 171.314 9.688 171.962 10.056C172.618 10.424 173.134 10.936 173.51 11.592C173.894 12.24 174.086 12.972 174.086 13.788C174.086 14.612 173.894 15.352 173.51 16.008C173.134 16.656 172.618 17.164 171.962 17.532C171.306 17.9 170.586 18.084 169.802 18.084ZM169.802 16.584C170.306 16.584 170.75 16.472 171.134 16.248C171.518 16.016 171.818 15.688 172.034 15.264C172.25 14.84 172.358 14.348 172.358 13.788C172.358 13.228 172.25 12.74 172.034 12.324C171.818 11.9 171.518 11.576 171.134 11.352C170.75 11.128 170.306 11.016 169.802 11.016C169.298 11.016 168.85 11.128 168.458 11.352C168.074 11.576 167.774 11.9 167.558 12.324C167.342 12.74 167.234 13.228 167.234 13.788C167.234 14.348 167.342 14.84 167.558 15.264C167.774 15.688 168.074 16.016 168.458 16.248C168.85 16.472 169.298 16.584 169.802 16.584ZM179.656 18L177.808 14.736H177.016V18H175.336V9.624H178.48C179.128 9.624 179.68 9.74 180.136 9.972C180.592 10.196 180.932 10.504 181.156 10.896C181.388 11.28 181.504 11.712 181.504 12.192C181.504 12.744 181.344 13.244 181.024 13.692C180.704 14.132 180.228 14.436 179.596 14.604L181.6 18H179.656ZM177.016 13.476H178.42C178.876 13.476 179.216 13.368 179.44 13.152C179.664 12.928 179.776 12.62 179.776 12.228C179.776 11.844 179.664 11.548 179.44 11.34C179.216 11.124 178.876 11.016 178.42 11.016H177.016V13.476ZM188.159 16.404H184.823L184.271 18H182.507L185.519 9.612H187.475L190.487 18H188.711L188.159 16.404ZM187.703 15.06L186.491 11.556L185.279 15.06H187.703ZM196.153 10.98V13.08H198.973V14.412H196.153V16.632H199.333V18H194.473V9.612H199.333V10.98H196.153ZM87.508 24.98V27.08H90.328V28.412H87.508V30.632H90.688V32H85.828V23.612H90.688V24.98H87.508ZM101.347 23.624V32H99.6667V26.552L97.4227 32H96.1507L93.8947 26.552V32H92.2147V23.624H94.1227L96.7867 29.852L99.4507 23.624H101.347ZM109.116 26.216C109.116 26.664 109.008 27.084 108.792 27.476C108.584 27.868 108.252 28.184 107.796 28.424C107.348 28.664 106.78 28.784 106.092 28.784H104.688V32H103.008V23.624H106.092C106.74 23.624 107.292 23.736 107.748 23.96C108.204 24.184 108.544 24.492 108.768 24.884C109 25.276 109.116 25.72 109.116 26.216ZM106.02 27.428C106.484 27.428 106.828 27.324 107.052 27.116C107.276 26.9 107.388 26.6 107.388 26.216C107.388 25.4 106.932 24.992 106.02 24.992H104.688V27.428H106.02ZM114.628 32L112.78 28.736H111.988V32H110.308V23.624H113.452C114.1 23.624 114.652 23.74 115.108 23.972C115.564 24.196 115.904 24.504 116.128 24.896C116.36 25.28 116.476 25.712 116.476 26.192C116.476 26.744 116.316 27.244 115.996 27.692C115.676 28.132 115.2 28.436 114.568 28.604L116.572 32H114.628ZM111.988 27.476H113.392C113.848 27.476 114.188 27.368 114.412 27.152C114.636 26.928 114.748 26.62 114.748 26.228C114.748 25.844 114.636 25.548 114.412 25.34C114.188 25.124 113.848 25.016 113.392 25.016H111.988V27.476ZM119.676 24.98V27.08H122.496V28.412H119.676V30.632H122.856V32H117.996V23.612H122.856V24.98H119.676ZM126.063 24.98V27.08H128.883V28.412H126.063V30.632H129.243V32H124.383V23.612H129.243V24.98H126.063ZM137.933 32H136.253L132.449 26.252V32H130.769V23.612H132.449L136.253 29.372V23.612H137.933V32ZM142.522 23.624C143.402 23.624 144.174 23.796 144.838 24.14C145.51 24.484 146.026 24.976 146.386 25.616C146.754 26.248 146.938 26.984 146.938 27.824C146.938 28.664 146.754 29.4 146.386 30.032C146.026 30.656 145.51 31.14 144.838 31.484C144.174 31.828 143.402 32 142.522 32H139.594V23.624H142.522ZM142.462 30.572C143.342 30.572 144.022 30.332 144.502 29.852C144.982 29.372 145.222 28.696 145.222 27.824C145.222 26.952 144.982 26.272 144.502 25.784C144.022 25.288 143.342 25.04 142.462 25.04H141.274V30.572H142.462ZM149.875 23.624V32H148.195V23.624H149.875ZM160.667 23.624V32H158.987V26.552L156.743 32H155.471L153.215 26.552V32H151.535V23.624H153.443L156.107 29.852L158.771 23.624H160.667ZM164.008 24.98V27.08H166.828V28.412H164.008V30.632H167.188V32H162.328V23.612H167.188V24.98H164.008ZM175.879 32H174.199L170.395 26.252V32H168.715V23.612H170.395L174.199 29.372V23.612H175.879V32ZM183.239 23.624V24.98H181.007V32H179.327V24.98H177.095V23.624H183.239ZM188.353 32.084C187.569 32.084 186.849 31.9 186.193 31.532C185.537 31.164 185.017 30.656 184.633 30.008C184.249 29.352 184.057 28.612 184.057 27.788C184.057 26.972 184.249 26.24 184.633 25.592C185.017 24.936 185.537 24.424 186.193 24.056C186.849 23.688 187.569 23.504 188.353 23.504C189.145 23.504 189.865 23.688 190.513 24.056C191.169 24.424 191.685 24.936 192.061 25.592C192.445 26.24 192.637 26.972 192.637 27.788C192.637 28.612 192.445 29.352 192.061 30.008C191.685 30.656 191.169 31.164 190.513 31.532C189.857 31.9 189.137 32.084 188.353 32.084ZM188.353 30.584C188.857 30.584 189.301 30.472 189.685 30.248C190.069 30.016 190.369 29.688 190.585 29.264C190.801 28.84 190.909 28.348 190.909 27.788C190.909 27.228 190.801 26.74 190.585 26.324C190.369 25.9 190.069 25.576 189.685 25.352C189.301 25.128 188.857 25.016 188.353 25.016C187.849 25.016 187.401 25.128 187.009 25.352C186.625 25.576 186.325 25.9 186.109 26.324C185.893 26.74 185.785 27.228 185.785 27.788C185.785 28.348 185.893 28.84 186.109 29.264C186.325 29.688 186.625 30.016 187.009 30.248C187.401 30.472 187.849 30.584 188.353 30.584ZM196.779 32.084C196.195 32.084 195.667 31.984 195.195 31.784C194.731 31.584 194.363 31.296 194.091 30.92C193.819 30.544 193.679 30.1 193.671 29.588H195.471C195.495 29.932 195.615 30.204 195.831 30.404C196.055 30.604 196.359 30.704 196.743 30.704C197.135 30.704 197.443 30.612 197.667 30.428C197.891 30.236 198.003 29.988 198.003 29.684C198.003 29.436 197.927 29.232 197.775 29.072C197.623 28.912 197.431 28.788 197.199 28.7C196.975 28.604 196.663 28.5 196.263 28.388C195.719 28.228 195.275 28.072 194.931 27.92C194.595 27.76 194.303 27.524 194.055 27.212C193.815 26.892 193.695 26.468 193.695 25.94C193.695 25.444 193.819 25.012 194.067 24.644C194.315 24.276 194.663 23.996 195.111 23.804C195.559 23.604 196.071 23.504 196.647 23.504C197.511 23.504 198.211 23.716 198.747 24.14C199.291 24.556 199.591 25.14 199.647 25.892H197.799C197.783 25.604 197.659 25.368 197.427 25.184C197.203 24.992 196.903 24.896 196.527 24.896C196.199 24.896 195.935 24.98 195.735 25.148C195.543 25.316 195.447 25.56 195.447 25.88C195.447 26.104 195.519 26.292 195.663 26.444C195.815 26.588 195.999 26.708 196.215 26.804C196.439 26.892 196.751 26.996 197.151 27.116C197.695 27.276 198.139 27.436 198.483 27.596C198.827 27.756 199.123 27.996 199.371 28.316C199.619 28.636 199.743 29.056 199.743 29.576C199.743 30.024 199.627 30.44 199.395 30.824C199.163 31.208 198.823 31.516 198.375 31.748C197.927 31.972 197.395 32.084 196.779 32.084Z" fill="black"/>
</svg>
