<svg width="1200" height="606" viewBox="0 0 1200 606" fill="none" xmlns="http://www.w3.org/2000/svg">
<mask id="mask0_316_1930" style="mask-type:alpha" maskUnits="userSpaceOnUse" x="0" y="0" width="1200" height="606">
<rect width="1200" height="606" fill="#3AAA35"/>
</mask>
<g mask="url(#mask0_316_1930)">
<path d="M681.639 692.693C680.22 688.123 679.652 683.552 678.233 678.982C918.677 617.683 1156.28 642.417 1208.52 733.828C1156.28 642.417 920.664 623.598 681.639 692.693Z" fill="#A35EA2"/>
<path d="M674.542 658.818L672.555 645.106C916.406 602.089 1156 642.417 1208.52 733.828C1156.28 642.417 917.258 608.542 674.542 658.818Z" fill="#A35EA2"/>
<path d="M670.568 624.673C670.568 619.565 670 614.994 670 610.424C915.271 587.033 1156.28 642.417 1208.8 733.828C1156.28 642.417 915.838 593.486 670.568 624.673Z" fill="#A35EA2"/>
<path d="M670.568 590.26C670.568 585.151 670.568 580.312 671.136 575.204C915.555 571.171 1156 642.417 1208.52 733.828C1156.28 642.417 914.987 577.892 670.568 590.26Z" fill="#A35EA2"/>
<path d="M673.407 555.04L675.394 540.79C917.826 555.846 1156.28 642.686 1208.52 733.828C1156.28 642.417 916.406 562.03 673.407 555.04Z" fill="#A35EA2"/>
<path d="M679.368 520.357C680.787 515.518 681.923 510.948 682.775 506.108C921.232 539.984 1156 642.417 1208.23 733.828C1156.28 642.417 919.245 546.436 679.368 520.357Z" fill="#A35EA2"/>
<path d="M689.02 485.944L694.414 472.233C925.774 525.197 1156 642.417 1208.23 733.828C1156.28 642.417 924.071 530.843 689.02 485.944Z" fill="#A35EA2"/>
<path d="M702.078 451.8C704.065 447.229 706.336 442.659 708.891 438.088C932.02 509.872 1156 642.418 1208.23 733.559C1156.28 642.418 929.465 515.787 702.078 451.8Z" fill="#A35EA2"/>
<path d="M718.827 418.73L727.06 405.019C940.536 495.085 1156.28 642.417 1208.52 733.828C1156.28 642.417 937.129 500.731 718.827 418.73Z" fill="#A35EA2"/>
<path d="M738.699 386.737L747.783 373.563C950.188 480.567 1156.28 642.417 1208.52 733.559C1156.28 642.417 945.93 486.482 738.699 386.737Z" fill="#A35EA2"/>
<path d="M761.409 355.281C764.815 350.71 769.073 346.677 772.48 342.913C961.259 466.855 1156.28 642.417 1208.52 733.559C1156.28 642.417 956.433 472.77 761.409 355.281Z" fill="#A35EA2"/>
<path d="M788.377 325.438L800.016 313.608C973.466 453.95 1156.28 642.417 1208.52 733.828C1156.28 642.417 968.072 459.059 788.377 325.438Z" fill="#A35EA2"/>
<path d="M817.901 297.208L819.888 295.326L830.959 286.185C987.376 441.583 1156 642.417 1208.52 733.828C1156.28 642.417 981.13 446.691 817.901 297.208Z" fill="#A35EA2"/>
<path d="M864.173 261.451C1001.85 430.291 1156.28 642.417 1208.52 733.828C1156.28 642.417 995.608 435.131 850.263 271.398L864.173 261.451Z" fill="#A35EA2"/>
<path d="M898.522 239.136C1017.75 420.612 1156.28 642.417 1208.52 733.559C1156.28 642.149 1010.94 424.376 884.044 248.277L898.522 239.136Z" fill="#A35EA2"/>
<path d="M934.291 220.854C1033.36 412.009 1156 642.417 1208.52 733.559L919.245 228.113L934.291 220.854Z" fill="#A35EA2"/>
<path d="M971.479 204.722C1050.11 405.557 1156 642.417 1208.52 733.828C1156.28 642.417 1043.3 408.245 955.581 211.175L971.479 204.722Z" fill="#A35EA2"/>
<path d="M1009.52 192.355C1067.43 399.911 1156.28 642.417 1208.52 733.828C1156.28 642.417 1059.76 401.793 993.621 196.925L1009.52 192.355Z" fill="#A35EA2"/>
<path d="M1048.13 182.407C1084.75 395.071 1156.28 642.417 1208.52 733.559C1156.28 642.149 1077.08 396.953 1032.23 186.171L1048.13 182.407Z" fill="#A35EA2"/>
<path d="M1086.45 175.955C1101.49 391.845 1156 642.417 1208.23 733.828C1156 642.417 1093.83 393.189 1070.55 178.106L1086.45 175.955Z" fill="#A35EA2"/>
<path d="M1125.91 171.922C1119.1 390.501 1156.28 642.417 1208.52 733.559C1156.28 642.149 1112 391.038 1109.44 173.266L1125.91 171.922Z" fill="#A35EA2"/>
<path d="M1148.62 171.384H1164.52C1136.98 389.963 1156.28 642.417 1208.52 733.828C1156.28 642.417 1129.31 389.963 1148.62 171.384Z" fill="#A35EA2"/>
<path d="M1187.23 171.922L1203.12 174.073C1154.3 391.307 1156.28 642.417 1208.52 733.828C1156.28 642.417 1146.63 390.501 1187.23 171.922Z" fill="#A35EA2"/>
<path d="M1224.98 176.493L1240.88 179.181C1170.48 393.727 1156.28 642.417 1208.52 733.828C1156.28 642.417 1163.66 392.652 1224.98 176.493Z" fill="#A35EA2"/>
<path d="M1263.02 183.752L1278.07 187.784C1187.23 397.76 1156.28 642.417 1208.52 733.828C1156.28 642.417 1180.13 395.878 1263.02 183.752Z" fill="#A35EA2"/>
<path d="M1299.36 194.237L1313.84 199.345C1203.69 402.868 1156 642.417 1208.52 733.559C1156.28 642.417 1196.88 400.448 1299.36 194.237Z" fill="#A35EA2"/>
<path d="M1334.56 207.142L1349.04 213.863C1218.74 409.589 1156.28 642.417 1208.52 733.828C1156.28 642.417 1212.77 406.363 1334.56 207.142Z" fill="#A35EA2"/>
<path d="M1368.34 223.542L1382.25 231.339C1234.07 417.386 1156.28 642.417 1208.8 733.559C1156.28 642.417 1227.82 413.353 1368.34 223.542Z" fill="#A35EA2"/>
<path d="M1400.7 243.168L1413.19 252.31C1247.98 426.527 1156.28 642.417 1208.52 733.828C1156.28 642.417 1242.3 422.494 1400.7 243.168Z" fill="#A35EA2"/>
<path d="M1430.23 266.021L1442.72 275.7C1260.75 436.744 1156.28 642.417 1208.52 733.559C1156.28 642.417 1255.36 432.442 1430.23 266.021Z" fill="#A35EA2"/>
<path d="M312.361 -330.987C313.78 -326.417 314.348 -321.846 315.767 -317.276C75.3227 -255.977 -162.283 -280.711 -214.517 -372.122C-162.283 -280.711 73.3356 -261.892 312.361 -330.987Z" fill="#A35EA2"/>
<path d="M319.458 -297.112L321.445 -283.4C77.5937 -240.383 -161.999 -280.711 -214.517 -372.122C-162.283 -280.711 76.7422 -246.836 319.458 -297.112Z" fill="#A35EA2"/>
<path d="M323.432 -262.967C323.432 -257.859 324 -253.288 324 -248.718C78.7293 -225.327 -162.283 -280.711 -214.801 -372.122C-162.283 -280.711 78.1615 -231.78 323.432 -262.967Z" fill="#A35EA2"/>
<path d="M323.432 -228.554C323.432 -223.445 323.432 -218.606 322.864 -213.498C78.4454 -209.465 -161.999 -280.711 -214.517 -372.122C-162.283 -280.711 79.0132 -216.186 323.432 -228.554Z" fill="#A35EA2"/>
<path d="M320.593 -193.334L318.606 -179.084C76.1743 -194.14 -162.283 -280.98 -214.517 -372.122C-162.283 -280.711 77.5937 -200.324 320.593 -193.334Z" fill="#A35EA2"/>
<path d="M314.632 -158.651C313.213 -153.812 312.077 -149.242 311.225 -144.402C72.7679 -178.278 -161.999 -280.711 -214.233 -372.122C-162.283 -280.711 74.755 -184.73 314.632 -158.651Z" fill="#A35EA2"/>
<path d="M304.98 -124.238L299.586 -110.526C68.2258 -163.491 -161.999 -280.711 -214.233 -372.122C-162.283 -280.711 69.929 -169.137 304.98 -124.238Z" fill="#A35EA2"/>
<path d="M291.922 -90.0935C289.935 -85.523 287.664 -80.9525 285.109 -76.3819C61.9805 -148.166 -161.999 -280.711 -214.233 -371.853C-162.283 -280.711 64.5353 -154.081 291.922 -90.0935Z" fill="#A35EA2"/>
<path d="M275.173 -57.0244L266.94 -43.3129C53.4641 -133.379 -162.283 -280.711 -214.517 -372.122C-162.283 -280.711 56.8707 -139.025 275.173 -57.0244Z" fill="#A35EA2"/>
<path d="M255.301 -25.0307L246.217 -11.8569C43.8123 -118.861 -162.283 -280.711 -214.517 -371.853C-162.283 -280.711 48.0704 -124.776 255.301 -25.0307Z" fill="#A35EA2"/>
<path d="M232.591 6.42525C229.185 10.9958 224.927 15.0286 221.52 18.7926C32.741 -105.149 -162.283 -280.711 -214.517 -371.853C-162.283 -280.711 37.567 -111.064 232.591 6.42525Z" fill="#A35EA2"/>
<path d="M205.623 36.2681L193.984 48.0977C20.5342 -92.2444 -162.283 -280.711 -214.517 -372.122C-162.283 -280.711 25.9279 -97.3526 205.623 36.2681Z" fill="#A35EA2"/>
<path d="M176.099 64.4978L174.112 66.3798L163.041 75.5209C6.62424 -79.877 -161.999 -280.711 -214.517 -372.122C-162.283 -280.711 12.8696 -84.9853 176.099 64.4978Z" fill="#A35EA2"/>
<path d="M129.827 100.255C-7.85352 -68.5851 -162.283 -280.711 -214.517 -372.122C-162.283 -280.711 -1.60822 -73.4246 143.737 90.3079L129.827 100.255Z" fill="#A35EA2"/>
<path d="M95.4781 122.57C-23.7507 -58.9064 -162.283 -280.711 -214.517 -371.853C-162.283 -280.443 -16.9376 -62.6703 109.956 113.429L95.4781 122.57Z" fill="#A35EA2"/>
<path d="M59.7095 140.853C-39.364 -50.3031 -161.999 -280.711 -214.517 -371.853L74.755 133.593L59.7095 140.853Z" fill="#A35EA2"/>
<path d="M22.5214 156.984C-56.1128 -43.8506 -161.999 -280.711 -214.517 -372.122C-162.283 -280.711 -49.2997 -46.5391 38.4186 150.531L22.5214 156.984Z" fill="#A35EA2"/>
<path d="M-15.5182 169.351C-73.4294 -38.2046 -162.283 -280.711 -214.517 -372.122C-162.283 -280.711 -65.7647 -40.0866 0.378906 164.781L-15.5182 169.351Z" fill="#A35EA2"/>
<path d="M-54.1257 179.299C-90.7459 -33.3652 -162.283 -280.711 -214.517 -371.853C-162.283 -280.443 -83.0812 -35.2472 -38.2285 175.535L-54.1257 179.299Z" fill="#A35EA2"/>
<path d="M-92.4492 185.751C-107.495 -30.139 -161.999 -280.711 -214.233 -372.122C-161.999 -280.711 -99.83 -31.4832 -76.552 183.6L-92.4492 185.751Z" fill="#A35EA2"/>
<path d="M-131.908 189.784C-125.095 -28.7947 -162.283 -280.711 -214.517 -371.853C-162.283 -280.443 -117.998 -29.3324 -115.443 188.44L-131.908 189.784Z" fill="#A35EA2"/>
<path d="M-154.619 190.322H-170.516C-142.98 -28.257 -162.283 -280.711 -214.517 -372.122C-162.283 -280.711 -135.315 -28.257 -154.619 190.322Z" fill="#A35EA2"/>
<path d="M-193.226 189.784L-209.123 187.633C-160.296 -29.6013 -162.283 -280.711 -214.517 -372.122C-162.283 -280.711 -152.631 -28.7947 -193.226 189.784Z" fill="#A35EA2"/>
<path d="M-230.982 185.214L-246.879 182.525C-176.477 -32.021 -162.283 -280.711 -214.517 -372.122C-162.283 -280.711 -169.664 -30.9455 -230.982 185.214Z" fill="#A35EA2"/>
<path d="M-269.021 177.954L-284.067 173.922C-193.226 -36.0538 -162.283 -280.711 -214.517 -372.122C-162.283 -280.711 -186.129 -34.1718 -269.021 177.954Z" fill="#A35EA2"/>
<path d="M-305.358 167.469L-319.836 162.361C-209.691 -41.162 -161.999 -280.711 -214.517 -371.853C-162.283 -280.711 -202.878 -38.7423 -305.358 167.469Z" fill="#A35EA2"/>
<path d="M-340.559 154.564L-355.036 147.843C-224.736 -47.8834 -162.283 -280.711 -214.517 -372.122C-162.283 -280.711 -218.775 -44.6571 -340.559 154.564Z" fill="#A35EA2"/>
<path d="M-374.34 138.164L-388.25 130.367C-240.066 -55.6801 -162.283 -280.711 -214.801 -371.853C-162.283 -280.711 -233.82 -51.6473 -374.34 138.164Z" fill="#A35EA2"/>
<path d="M-406.702 118.538L-419.193 109.397C-253.976 -64.8212 -162.283 -280.711 -214.517 -372.122C-162.283 -280.711 -248.298 -60.7884 -406.702 118.538Z" fill="#A35EA2"/>
<path d="M-436.226 95.685L-448.716 86.0062C-266.75 -75.0377 -162.283 -280.711 -214.517 -371.853C-162.283 -280.711 -261.357 -70.736 -436.226 95.685Z" fill="#A35EA2"/>
</g>
</svg>
