<svg width="1200" height="640" viewBox="0 0 1200 640" fill="none" xmlns="http://www.w3.org/2000/svg">
<mask id="mask0_316_1934" style="mask-type:alpha" maskUnits="userSpaceOnUse" x="0" y="0" width="1200" height="640">
<rect width="1200" height="640" transform="matrix(-1 0 0 1 1200 0)" fill="#3AAA35"/>
</mask>
<g mask="url(#mask0_316_1934)">
<path d="M510.361 731.557C511.78 726.73 512.348 721.903 513.767 717.076C273.323 652.338 35.7168 678.461 -16.5168 775C35.7168 678.461 271.336 658.585 510.361 731.557Z" fill="#006633"/>
<path d="M517.458 695.781L519.445 681.3C275.594 635.87 36.0007 678.461 -16.5168 775C35.7168 678.461 274.742 642.685 517.458 695.781Z" fill="#006633"/>
<path d="M521.432 659.721C521.432 654.326 522 649.499 522 644.672C276.729 619.969 35.7168 678.461 -16.8007 775C35.7168 678.461 276.162 626.784 521.432 659.721Z" fill="#006633"/>
<path d="M521.432 623.377C521.432 617.982 521.432 612.871 520.864 607.476C276.445 603.217 36.0007 678.461 -16.5168 775C35.7168 678.461 277.013 610.315 521.432 623.377Z" fill="#006633"/>
<path d="M518.593 586.181L516.606 571.132C274.174 587.033 35.7168 678.745 -16.5168 775C35.7168 678.461 275.594 593.563 518.593 586.181Z" fill="#006633"/>
<path d="M512.632 549.553C511.213 544.442 510.077 539.615 509.225 534.504C270.768 570.28 36.0007 678.461 -16.2329 775C35.7168 678.461 272.755 577.095 512.632 549.553Z" fill="#006633"/>
<path d="M502.98 513.208L497.586 498.728C266.226 554.663 36.0007 678.461 -16.2329 775C35.7168 678.461 267.929 560.626 502.98 513.208Z" fill="#006633"/>
<path d="M489.922 477.148C487.935 472.321 485.664 467.494 483.109 462.667C259.98 538.479 36.0007 678.461 -16.2329 774.716C35.7168 678.461 262.535 544.726 489.922 477.148Z" fill="#006633"/>
<path d="M473.173 442.224L464.94 427.743C251.464 522.862 35.7168 678.461 -16.5168 775C35.7168 678.461 254.871 528.825 473.173 442.224Z" fill="#006633"/>
<path d="M453.301 408.435L444.217 394.522C241.812 507.53 35.7168 678.461 -16.5168 774.716C35.7168 678.461 246.07 513.776 453.301 408.435Z" fill="#006633"/>
<path d="M430.591 375.214C427.185 370.387 422.927 366.128 419.52 362.153C230.741 493.049 35.7168 678.461 -16.5168 774.716C35.7168 678.461 235.567 499.295 430.591 375.214Z" fill="#006633"/>
<path d="M403.623 343.697L391.984 331.204C218.534 479.42 35.7168 678.461 -16.5168 775C35.7168 678.461 223.928 484.815 403.623 343.697Z" fill="#006633"/>
<path d="M374.099 313.883L372.112 311.896L361.041 302.242C204.624 466.359 36.0007 678.461 -16.5168 775C35.7168 678.461 210.87 471.753 374.099 313.883Z" fill="#006633"/>
<path d="M327.827 276.12C190.146 454.433 35.7168 678.461 -16.5168 775C35.7168 678.461 196.392 459.544 341.737 286.625L327.827 276.12Z" fill="#006633"/>
<path d="M293.478 252.553C174.249 444.211 35.7168 678.461 -16.5168 774.716C35.7168 678.177 181.062 448.186 307.956 262.206L293.478 252.553Z" fill="#006633"/>
<path d="M257.709 233.245C158.636 435.125 36.0007 678.461 -16.5168 774.716L272.755 240.911L257.709 233.245Z" fill="#006633"/>
<path d="M220.521 216.208C141.887 428.311 36.0007 678.461 -16.5168 775C35.7168 678.461 148.7 431.15 236.419 223.023L220.521 216.208Z" fill="#006633"/>
<path d="M182.482 203.147C124.571 422.348 35.7168 678.461 -16.5168 775C35.7168 678.461 132.235 424.336 198.379 207.974L182.482 203.147Z" fill="#006633"/>
<path d="M143.874 192.641C107.254 417.237 35.7168 678.461 -16.5168 774.716C35.7168 678.177 114.919 419.225 159.772 196.617L143.874 192.641Z" fill="#006633"/>
<path d="M105.551 185.827C90.5052 413.83 36.0007 678.461 -16.2329 775C36.0007 678.461 98.17 415.25 121.448 188.098L105.551 185.827Z" fill="#006633"/>
<path d="M66.0917 181.568C72.9048 412.41 35.7168 678.461 -16.5168 774.716C35.7168 678.177 80.0018 412.978 82.5567 182.988L66.0917 181.568Z" fill="#006633"/>
<path d="M43.3815 181H27.4843C55.0205 411.842 35.7168 678.461 -16.5168 775C35.7168 678.461 62.6852 411.842 43.3815 181Z" fill="#006633"/>
<path d="M4.77405 181.568L-11.1231 183.839C37.7039 413.262 35.7168 678.461 -16.5168 775C35.7168 678.461 45.3686 412.41 4.77405 181.568Z" fill="#006633"/>
<path d="M-32.9818 186.395L-48.8789 189.234C21.5229 415.817 35.7168 678.461 -16.5168 775C35.7168 678.461 28.3359 414.682 -32.9818 186.395Z" fill="#006633"/>
<path d="M-71.0214 194.061L-86.0669 198.32C4.77411 420.076 35.7168 678.461 -16.5168 775C35.7168 678.461 11.871 418.089 -71.0214 194.061Z" fill="#006633"/>
<path d="M-107.358 205.135L-121.836 210.53C-11.6909 425.471 36.0007 678.461 -16.5168 774.716C35.7168 678.461 -4.87781 422.916 -107.358 205.135Z" fill="#006633"/>
<path d="M-142.559 218.764L-157.036 225.862C-26.7364 432.57 35.7168 678.461 -16.5168 775C35.7168 678.461 -20.775 429.163 -142.559 218.764Z" fill="#006633"/>
<path d="M-176.34 236.084L-190.25 244.318C-42.0658 440.804 35.7168 678.461 -16.8007 774.716C35.7168 678.461 -35.8205 436.545 -176.34 236.084Z" fill="#006633"/>
<path d="M-208.702 256.812L-221.193 266.466C-55.9758 450.458 35.7168 678.461 -16.5168 775C35.7168 678.461 -50.2983 446.199 -208.702 256.812Z" fill="#006633"/>
<path d="M-238.226 280.946L-250.716 291.168C-68.7504 461.248 35.7168 678.461 -16.5168 774.716C35.7168 678.461 -63.3567 456.705 -238.226 280.946Z" fill="#006633"/>
<path d="M879.639 -349.557C878.22 -344.73 877.652 -339.903 876.233 -335.076C1116.68 -270.338 1354.28 -296.461 1406.52 -393C1354.28 -296.461 1118.66 -276.585 879.639 -349.557Z" fill="#006633"/>
<path d="M872.542 -313.781L870.555 -299.3C1114.41 -253.87 1354 -296.461 1406.52 -393C1354.28 -296.461 1115.26 -260.685 872.542 -313.781Z" fill="#006633"/>
<path d="M868.568 -277.721C868.568 -272.326 868 -267.499 868 -262.672C1113.27 -237.969 1354.28 -296.461 1406.8 -393C1354.28 -296.461 1113.84 -244.784 868.568 -277.721Z" fill="#006633"/>
<path d="M868.568 -241.377C868.568 -235.982 868.568 -230.871 869.136 -225.476C1113.55 -221.217 1354 -296.461 1406.52 -393C1354.28 -296.461 1112.99 -228.315 868.568 -241.377Z" fill="#006633"/>
<path d="M871.407 -204.181L873.394 -189.132C1115.83 -205.033 1354.28 -296.745 1406.52 -393C1354.28 -296.461 1114.41 -211.563 871.407 -204.181Z" fill="#006633"/>
<path d="M877.368 -167.553C878.787 -162.442 879.923 -157.615 880.775 -152.504C1119.23 -188.28 1354 -296.461 1406.23 -393C1354.28 -296.461 1117.25 -195.095 877.368 -167.553Z" fill="#006633"/>
<path d="M887.02 -131.208L892.414 -116.728C1123.77 -172.663 1354 -296.461 1406.23 -393C1354.28 -296.461 1122.07 -178.626 887.02 -131.208Z" fill="#006633"/>
<path d="M900.078 -95.1482C902.065 -90.3212 904.336 -85.4943 906.891 -80.6673C1130.02 -156.479 1354 -296.461 1406.23 -392.716C1354.28 -296.461 1127.46 -162.726 900.078 -95.1482Z" fill="#006633"/>
<path d="M916.827 -60.2237L925.06 -45.7428C1138.54 -140.862 1354.28 -296.461 1406.52 -393C1354.28 -296.461 1135.13 -146.825 916.827 -60.2237Z" fill="#006633"/>
<path d="M936.699 -26.435L945.783 -12.522C1148.19 -125.53 1354.28 -296.461 1406.52 -392.716C1354.28 -296.461 1143.93 -131.776 936.699 -26.435Z" fill="#006633"/>
<path d="M959.409 6.78584C962.815 11.6128 967.073 15.8719 970.48 19.847C1159.26 -111.049 1354.28 -296.461 1406.52 -392.716C1354.28 -296.461 1154.43 -117.295 959.409 6.78584Z" fill="#006633"/>
<path d="M986.377 38.3031L998.016 50.7964C1171.47 -97.4197 1354.28 -296.461 1406.52 -393C1354.28 -296.461 1166.07 -102.815 986.377 38.3031Z" fill="#006633"/>
<path d="M1015.9 68.1166L1017.89 70.1042L1028.96 79.7581C1185.38 -84.3585 1354 -296.461 1406.52 -393C1354.28 -296.461 1179.13 -89.7534 1015.9 68.1166Z" fill="#006633"/>
<path d="M1062.17 105.88C1199.85 -72.4331 1354.28 -296.461 1406.52 -393C1354.28 -296.461 1193.61 -77.544 1048.26 95.3748L1062.17 105.88Z" fill="#006633"/>
<path d="M1096.52 129.447C1215.75 -62.2113 1354.28 -296.461 1406.52 -392.716C1354.28 -296.177 1208.94 -66.1864 1082.04 119.794L1096.52 129.447Z" fill="#006633"/>
<path d="M1132.29 148.755C1231.36 -53.1252 1354 -296.461 1406.52 -392.716L1117.25 141.089L1132.29 148.755Z" fill="#006633"/>
<path d="M1169.48 165.792C1248.11 -46.3107 1354 -296.461 1406.52 -393C1354.28 -296.461 1241.3 -49.1501 1153.58 158.977L1169.48 165.792Z" fill="#006633"/>
<path d="M1207.52 178.853C1265.43 -40.348 1354.28 -296.461 1406.52 -393C1354.28 -296.461 1257.76 -42.3356 1191.62 174.026L1207.52 178.853Z" fill="#006633"/>
<path d="M1246.13 189.359C1282.75 -35.2371 1354.28 -296.461 1406.52 -392.716C1354.28 -296.177 1275.08 -37.2247 1230.23 185.383L1246.13 189.359Z" fill="#006633"/>
<path d="M1284.45 196.173C1299.49 -31.8298 1354 -296.461 1406.23 -393C1354 -296.461 1291.83 -33.2495 1268.55 193.902L1284.45 196.173Z" fill="#006633"/>
<path d="M1323.91 200.432C1317.1 -30.4101 1354.28 -296.461 1406.52 -392.716C1354.28 -296.177 1310 -30.978 1307.44 199.012L1323.91 200.432Z" fill="#006633"/>
<path d="M1346.62 201H1362.52C1334.98 -29.8423 1354.28 -296.461 1406.52 -393C1354.28 -296.461 1327.31 -29.8423 1346.62 201Z" fill="#006633"/>
<path d="M1385.23 200.432L1401.12 198.161C1352.3 -31.262 1354.28 -296.461 1406.52 -393C1354.28 -296.461 1344.63 -30.4101 1385.23 200.432Z" fill="#006633"/>
<path d="M1422.98 195.605L1438.88 192.766C1368.48 -33.8174 1354.28 -296.461 1406.52 -393C1354.28 -296.461 1361.66 -32.6816 1422.98 195.605Z" fill="#006633"/>
<path d="M1461.02 187.939L1476.07 183.68C1385.23 -38.0765 1354.28 -296.461 1406.52 -393C1354.28 -296.461 1378.13 -36.0889 1461.02 187.939Z" fill="#006633"/>
<path d="M1497.36 176.865L1511.84 171.47C1401.69 -43.4713 1354 -296.461 1406.52 -392.716C1354.28 -296.461 1394.88 -40.9159 1497.36 176.865Z" fill="#006633"/>
<path d="M1532.56 163.236L1547.04 156.138C1416.74 -50.5698 1354.28 -296.461 1406.52 -393C1354.28 -296.461 1410.77 -47.1625 1532.56 163.236Z" fill="#006633"/>
<path d="M1566.34 145.916L1580.25 137.682C1432.07 -58.804 1354.28 -296.461 1406.8 -392.716C1354.28 -296.461 1425.82 -54.5449 1566.34 145.916Z" fill="#006633"/>
<path d="M1598.7 125.188L1611.19 115.534C1445.98 -68.4579 1354.28 -296.461 1406.52 -393C1354.28 -296.461 1440.3 -64.1989 1598.7 125.188Z" fill="#006633"/>
<path d="M1628.23 101.054L1640.72 90.8317C1458.75 -79.2476 1354.28 -296.461 1406.52 -392.716C1354.28 -296.461 1453.36 -74.7046 1628.23 101.054Z" fill="#006633"/>
</g>
</svg>
